#!OML:ASF X:\für Bonn\!DataBase\2005_08_11_Bastian_Final\c3d\Bastian.ASF
:FULLY-SPECIFIED
:DEGREES
138
root -6.55264 15.9819 -8.71844 164.166 115.072 -554.845
lowerback 11.6465 1.24893 -2.16557
upperback 7.27185 1.69281 -0.537153
thorax 1.0286 0.892599 0.483632
lowerneck -7.10016 5.21587 -4.14439
upperneck -6.7662 7.47607 2.49791
head -1.18952 3.88896 1.5373
rclavicle 1.74931e-014 -1.27222e-014
rhumerus -44.2792 16.038 -90.0142
rradius 44.1191
rwrist 4.38463
rhand -20.6227 11.3593
rfingers 7.12502
rthumb 5.73862 -18.543
lclavicle 1.74931e-014 -1.27222e-014
lhumerus -35.7722 -14.6735 87.8568
lradius 86.4673
lwrist 209.76
lhand -26.5421 9.23049
lfingers 7.12502
lthumb 0.0221622 39.2102
rfemur -21.3677 -11.1616 16.1822
rtibia 104.638
rfoot -9.22108 -1.40566
rtoes -6.8507
lfemur -19.863 0.482272 -30.8688
ltibia 54.777
lfoot -20.6677 -10.9866
ltoes 27.1162
139
root -6.31412 15.9678 -8.5675 163.795 114.271 -555.123
lowerback 11.7707 1.01459 -2.58433
upperback 7.23118 1.34062 -0.45621
thorax 0.918932 0.703051 0.836877
lowerneck -7.29242 5.31476 -4.15659
upperneck -6.6263 7.61352 2.50901
head -1.11942 3.95816 1.55171
rclavicle 1.11319e-014 -1.59028e-015
rhumerus -44.3965 14.9758 -89.159
rradius 41.2289
rwrist 3.28835
rhand -20.9401 10.8203
rfingers 7.12502
rthumb 5.43222 -19.0901
lclavicle 1.11319e-014 -1.59028e-015
lhumerus -34.7414 -15.3936 88.6845
lradius 87.2114
lwrist 210.096
lhand -27.1082 10.4398
lfingers 7.12502
lthumb -0.524633 40.4189
rfemur -23.55 -10.9275 15.927
rtibia 105.782
rfoot -10.2556 -2.09044
rtoes -6.77355
lfemur -18.521 0.0880898 -30.7986
ltibia 54.8348
lfoot -21.5355 -11.5889
ltoes 28.5409
140
root -6.07257 15.9647 -8.41903 163.299 113.452 -555.566
lowerback 11.8571 0.755347 -2.93213
upperback 7.17453 0.961168 -0.363379
thorax 0.821167 0.501939 1.16781
lowerneck -7.47758 5.42559 -4.15863
upperneck -6.44867 7.76403 2.51594
head -1.03857 4.03291 1.56395
rclavicle 5.00937e-014 -3.02153e-014
rhumerus -44.5837 13.8757 -88.2282
rradius 38.6522
rwrist 2.29131
rhand -21.1279 10.3313
rfingers 7.12502
rthumb 5.25082 -19.5837
lclavicle 5.00937e-014 -3.02153e-014
lhumerus -33.7692 -16.0779 89.4557
lradius 88.0056
lwrist 210.564
lhand -27.8354 11.8435
lfingers 7.12502
lthumb -1.22692 41.8197
rfemur -25.7 -10.6703 15.8322
rtibia 106.635
rfoot -11.3892 -2.99487
rtoes -7.95018
lfemur -17.0562 -0.303413 -30.6478
ltibia 54.6085
lfoot -22.3073 -12.2673
ltoes 29.8602
141
root -5.82878 15.9699 -8.27452 162.65 112.644 -556.174
lowerback 11.9335 0.478909 -3.17443
upperback 7.11571 0.568691 -0.256962
thorax 0.733544 0.29751 1.45652
lowerneck -7.69407 5.53955 -4.17861
upperneck -6.20798 7.91798 2.5021
head -0.932715 4.10904 1.57536
rclavicle 3.02153e-014 -3.18055e-014
rhumerus -44.8161 12.7736 -87.2165
rradius 36.3136
rwrist 1.42371
rhand -21.19 10.0184
rfingers 7.12502
rthumb 5.19092 -19.898
lclavicle 3.02153e-014 -3.18055e-014
lhumerus -32.8942 -16.7403 90.1846
lradius 88.9936
lwrist 211.16
lhand -28.58 13.1879
lfingers 7.12502
lthumb -1.94609 43.1587
rfemur -27.7893 -10.3971 15.8682
rtibia 107.21
rfoot -12.5785 -4.07111
rtoes -9.50685
lfemur -15.4794 -0.707785 -30.4341
ltibia 54.144
lfoot -22.961 -12.9022
ltoes 30.4728
142
root -5.58316 15.9835 -8.13368 162.02 111.88 -556.793
lowerback 11.9542 0.218483 -3.35535
upperback 7.05493 0.204401 -0.171188
thorax 0.677194 0.109058 1.68743
lowerneck -7.92563 5.64114 -4.20249
upperneck -5.92318 8.05522 2.49599
head -0.810543 4.17626 1.59188
rclavicle -2.90226e-014 0
rhumerus -45.183 11.6784 -86.2031
rradius 34.3273
rwrist 0.683451
rhand -21.1927 9.65725
rfingers 7.12502
rthumb 5.18829 -20.2592
lclavicle -2.90226e-014 0
lhumerus -31.965 -17.4689 90.8101
lradius 90.1654
lwrist 211.903
lhand -29.4007 14.2151
lfingers 7.12502
lthumb -2.73871 44.1772
rfemur -29.8773 -9.97522 15.9747
rtibia 107.498
rfoot -13.7557 -5.18922
rtoes -10.4808
lfemur -13.8496 -1.12095 -30.2191
ltibia 53.4756
lfoot -23.5042 -13.4816
ltoes 30.6002
143
root -5.33564 16.0098 -7.9985 161.172 111.224 -557.668
lowerback 11.942 -0.0388449 -3.37194
upperback 6.98162 -0.140017 -0.0556785
thorax 0.626042 -0.0655628 1.85493
lowerneck -8.03642 5.73707 -4.27195
upperneck -5.72879 8.18458 2.46069
head -0.737322 4.24004 1.6013
rclavicle 3.81667e-014 7.95139e-015
rhumerus -45.6698 10.6276 -85.1441
rradius 32.6602
rwrist 0.192394
rhand -21.0761 9.29372
rfingers 7.12502
rthumb 5.30085 -20.62
lclavicle 3.81667e-014 7.95139e-015
lhumerus -31.0182 -18.2228 91.3833
lradius 91.6213
lwrist 212.717
lhand -30.1417 14.8591
lfingers 7.12502
lthumb -3.45432 44.8109
rfemur -31.9119 -9.38709 16.2567
rtibia 107.416
rfoot -14.8369 -6.25578
rtoes -10.4764
lfemur -12.1775 -1.49865 -29.8757
ltibia 52.6001
lfoot -23.8058 -14.0717
ltoes 30.5195
144
root -5.08588 16.048 -7.86885 160.201 110.658 -558.681
lowerback 11.893 -0.302522 -3.25725
upperback 6.90059 -0.479804 0.0464717
thorax 0.585746 -0.234276 1.93397
lowerneck -8.07877 5.84719 -4.38115
upperneck -5.53241 8.33302 2.44473
head -0.678172 4.31298 1.6216
rclavicle -5.96354e-015 -1.59028e-014
rhumerus -46.1372 9.38916 -83.9967
rradius 31.1217
rwrist 0.239097
rhand -20.9304 8.90984
rfingers 7.12502
rthumb 5.44159 -21.0003
lclavicle -5.96354e-015 -1.59028e-014
lhumerus -29.8771 -18.9449 91.8104
lradius 93.284
lwrist 213.545
lhand -30.8594 14.9869
lfingers 7.12502
lthumb -4.1474 44.9263
rfemur -33.8196 -8.68578 16.5998
rtibia 106.961
rfoot -15.87 -7.12668
rtoes -9.56642
lfemur -10.4592 -1.78354 -29.4634
ltibia 51.521
lfoot -23.8705 -14.6106
ltoes 30.0854
145
root -4.83227 16.1001 -7.74164 159.142 110.123 -559.802
lowerback 11.764 -0.554643 -3.03491
upperback 6.83623 -0.790966 0.139034
thorax 0.602067 -0.386565 1.93795
lowerneck -8.03269 5.92739 -4.55654
upperneck -5.40889 8.4453 2.44822
head -0.659095 4.36907 1.6543
rclavicle 4.37326e-015 2.38542e-014
rhumerus -46.6199 7.97817 -82.7837
rradius 29.8161
rwrist 0.667623
rhand -20.7447 8.46285
rfingers 7.12502
rthumb 5.6208 -21.4426
lclavicle 4.37326e-015 2.38542e-014
lhumerus -28.5556 -19.6699 92.1785
lradius 94.9232
lwrist 214.379
lhand -31.5617 14.798
lfingers 7.12502
lthumb -4.82549 44.7231
rfemur -35.565 -7.91831 16.9533
rtibia 106.107
rfoot -16.8285 -7.72814
rtoes -8.08529
lfemur -8.68843 -2.0625 -29.0128
ltibia 50.2389
lfoot -23.6687 -15.0506
ltoes 29.1865
146
root -4.57567 16.1637 -7.61663 157.803 109.664 -561.237
lowerback 11.6014 -0.803893 -2.69322
upperback 6.76312 -1.0874 0.277523
thorax 0.623519 -0.529416 1.91943
lowerneck -7.99061 6.00062 -4.80393
upperneck -5.25866 8.55289 2.45518
head -0.634333 4.4234 1.70104
rclavicle 2.50469e-014 9.54166e-015
rhumerus -47.1419 6.62464 -81.5629
rradius 28.7325
rwrist 1.33054
rhand -20.6351 8.01388
rfingers 7.12502
rthumb 5.7267 -21.8887
lclavicle 2.50469e-014 9.54166e-015
lhumerus -27.2656 -20.2556 92.4927
lradius 96.3012
lwrist 215.191
lhand -32.2206 14.7315
lfingers 7.12502
lthumb -5.46177 44.6411
rfemur -37.1797 -7.08367 17.4046
rtibia 104.894
rfoot -17.5898 -8.14739
rtoes -6.33188
lfemur -6.87265 -2.42319 -28.4666
ltibia 48.7737
lfoot -23.2501 -15.349
ltoes 28.0718
147
root -4.31438 16.2457 -7.49417 155.281 109.359 -563.86
lowerback 11.5033 -1.09256 -1.91568
upperback 6.68911 -1.39591 0.508603
thorax 0.597596 -0.667001 1.7534
lowerneck -7.88038 6.07184 -5.06149
upperneck -5.11789 8.6551 2.47641
head -0.625016 4.47438 1.7512
rclavicle 3.06128e-014 -9.54166e-015
rhumerus -47.801 5.32985 -80.3865
rradius 27.9233
rwrist 2.23966
rhand -20.5511 7.67375
rfingers 7.12502
rthumb 5.80774 -22.2267
lclavicle 3.06128e-014 -9.54166e-015
lhumerus -26.0645 -20.7542 92.7436
lradius 97.4793
lwrist 215.987
lhand -32.8965 14.691
lfingers 7.12502
lthumb -6.11427 44.5828
rfemur -38.4554 -6.16664 18.2986
rtibia 103.234
rfoot -18.0979 -8.50584
rtoes -5.03512
lfemur -4.93159 -2.74427 -27.4613
ltibia 47.1256
lfoot -22.52 -15.664
ltoes 26.7417
148
root -4.04537 16.343 -7.37433 152.596 109.125 -566.689
lowerback 11.3191 -1.39 -1.05955
upperback 6.61928 -1.70903 0.750732
thorax 0.616432 -0.805692 1.5525
lowerneck -7.76519 6.15772 -5.33124
upperneck -4.99997 8.77782 2.49579
head -0.625473 4.53603 1.80223
rclavicle -7.71285e-014 -6.36111e-015
rhumerus -48.5725 4.23978 -79.3476
rradius 27.511
rwrist 3.10613
rhand -20.4978 7.35423
rfingers 7.12502
rthumb 5.85923 -22.5448
lclavicle -7.71285e-014 -6.36111e-015
lhumerus -24.9726 -21.2793 92.9414
lradius 98.6517
lwrist 216.793
lhand -33.3417 14.5586
lfingers 7.12502
lthumb -6.54414 44.4375
rfemur -39.5048 -5.24458 19.159
rtibia 101.217
rfoot -18.6278 -8.54614
rtoes -4.38716
lfemur -3.04525 -3.03757 -26.3733
ltibia 45.3076
lfoot -21.2718 -16.0494
ltoes 25.9277
149
root -3.76642 16.4446 -7.25697 150.875 108.812 -568.564
lowerback 11.0046 -1.63879 -0.55144
upperback 6.52115 -1.99593 0.916744
thorax 0.68097 -0.940799 1.46107
lowerneck -7.63785 6.24907 -5.62697
upperneck -4.83375 8.90709 2.52441
head -0.615071 4.60008 1.86123
rclavicle 6.36111e-015 6.36111e-015
rhumerus -49.5343 3.43588 -78.4286
rradius 27.4741
rwrist 3.81078
rhand -20.4336 7.30965
rfingers 7.12502
rthumb 5.92121 -22.5876
lclavicle 6.36111e-015 6.36111e-015
lhumerus -24.0028 -21.7462 93.1401
lradius 99.7059
lwrist 217.635
lhand -33.7785 14.3473
lfingers 7.12502
lthumb -6.96576 44.2127
rfemur -40.4456 -4.51601 19.5342
rtibia 98.9908
rfoot -19.0859 -8.40825
rtoes -3.88117
lfemur -1.18026 -3.33518 -25.716
ltibia 43.3578
lfoot -19.6827 -16.2306
ltoes 25.3224
150
root -3.48033 16.5516 -7.14048 149.377 108.466 -570.22
lowerback 10.6317 -1.87735 -0.153104
upperback 6.38688 -2.2845 1.08728
thorax 0.742016 -1.08051 1.43282
lowerneck -7.4198 6.33537 -6.02571
upperneck -4.64349 9.02949 2.57216
head -0.618238 4.66039 1.94078
rclavicle -2.10712e-014 3.97569e-015
rhumerus -50.8154 3.10355 -77.7873
rradius 28.0181
rwrist 4.0461
rhand -20.3432 7.378
rfingers 7.12502
rthumb 6.0085 -22.5168
lclavicle -2.10712e-014 3.97569e-015
lhumerus -23.2895 -22.2163 93.3804
lradius 100.703
lwrist 218.56
lhand -34.0804 14.0892
lfingers 7.12502
lthumb -7.25715 43.9447
rfemur -41.1826 -4.01942 19.8262
rtibia 96.5579
rfoot -19.4703 -8.29073
rtoes -4.60901
lfemur 0.67972 -3.67774 -25.2172
ltibia 41.3637
lfoot -17.896 -16.1695
ltoes 24.6411
151
root -3.18676 16.6637 -7.02728 148.082 108.098 -571.707
lowerback 10.1346 -2.11643 0.224574
upperback 6.22523 -2.58265 1.21717
thorax 0.840021 -1.22592 1.36856
lowerneck -7.04415 6.45141 -6.38663
upperneck -4.53714 9.17792 2.60456
head -0.673846 4.73285 2.00029
rclavicle -3.85642e-014 2.62396e-014
rhumerus -52.3263 2.95145 -77.3042
rradius 28.9746
rwrist 4.138
rhand -20.1817 7.71185
rfingers 7.12502
rthumb 6.1644 -22.1785
lclavicle -3.85642e-014 2.62396e-014
lhumerus -22.759 -22.7966 93.51
lradius 101.651
lwrist 219.566
lhand -34.1981 13.8838
lfingers 7.12502
lthumb -7.37074 43.7354
rfemur -41.7231 -3.74738 20.0508
rtibia 93.9293
rfoot -19.8021 -8.10189
rtoes -6.14009
lfemur 2.45125 -4.22522 -24.934
ltibia 39.46
lfoot -15.9831 -15.5935
ltoes 23.1399
152
root -2.88658 16.7813 -6.91527 146.954 107.739 -573.042
lowerback 9.55564 -2.33463 0.53157
upperback 6.06193 -2.86473 1.35492
thorax 0.983389 -1.36564 1.34398
lowerneck -6.65325 6.56554 -6.71631
upperneck -4.42247 9.31602 2.56921
head -0.724706 4.79903 2.03165
rclavicle -4.17448e-015 -7.15625e-015
rhumerus -53.9623 2.94484 -76.8526
rradius 30.2643
rwrist 4.0997
rhand -19.9089 8.33492
rfingers 7.12502
rthumb 6.4278 -21.5475
lclavicle -4.17448e-015 -7.15625e-015
lhumerus -22.3957 -23.3337 93.6372
lradius 102.539
lwrist 220.577
lhand -34.1866 13.8239
lfingers 7.12502
lthumb -7.3597 43.6759
rfemur -42.0396 -3.56316 20.2085
rtibia 91.0617
rfoot -20.1389 -7.71264
rtoes -7.53044
lfemur 4.10679 -4.92409 -24.8357
ltibia 37.7797
lfoot -13.9091 -14.5402
ltoes 21.0076
